# xmcd
#
# Track frame offsets:
#	150
#	13285
#	23670
#	35877
#	52685
#	63732
#	75670
#	88502
#	101837
#	113142
#	126775
#	140470
#	150572
#	162527
#	174415
#	186140
#	197880
#	211920
#	225362
#	236237
#	246962
#	258515
#	272820
#	283522
#	296160
#	309635
#	318877
#	333400
#
# Disc length: 4632 seconds
# Revision: 0
# Processed by: cddbd v1.5.2PL0 Copyright (c) Steve Scherf et al.
# Submitted via: dBpowerAMP V12.0
#
DISCID=9912161c
DTITLE=Various Artist - The Complete Sun Singles, Vol. 1, Disc 2
DYEAR=1994
DGENRE=Blues
TTITLE0=Ripley Cotton Choppers - Blues Waltz
TTITLE1=Ripley Cotton Choppers - Silver Bells
TTITLE2=Prisonaires, The - A Prisoner's Prayer
TTITLE3=Prisonaires, The - I Know
TTITLE4=Little Junior's Blue Flames - Mystery Train
TTITLE5=Little Junior's Blue Flames - Love My Baby
TTITLE6=Doctor Ross - Come Back Baby
TTITLE7=Doctor Ross - Chicago Breakdown
TTITLE8=Little Milton - Beggin' My Baby
TTITLE9=Little Milton - Somebody Told Me
TTITLE10=Billy "The Kid" Emerson - No Teasing Around
TTITLE11=Billy "The Kid" Emerson - If Lovin' Is Believing
TTITLE12=Coy "Hot Shot" Love - Wolf Call Boogie
TTITLE13=Coy "Hot Shot" Love - Harmonica Jam
TTITLE14=Earl Peterson - Boogie Blues
TTITLE15=Earl Peterson - In the Dark
TTITLE16=Howard Serratt - Troublesome Waters
TTITLE17=Howard Serratt - I Must Be Saved
TTITLE18=James Cotton - My Baby
TTITLE19=James Cotton - Straighten Up Baby
TTITLE20=Little Milton - If You Love Me Baby
TTITLE21=Little Milton - Alone and Blue
TTITLE22=Hardrock Gunter - Gonna Dance All Night
TTITLE23=Hardrock Gunter - Fallen Angel
TTITLE24=Doug Poindexter - Now She Cares No More for Me
TTITLE25=Doug Poindexter - My Kind of Carryin' On
TTITLE26=Billy "The Kid" Emerson - I'm Not Going Home
TTITLE27=Billy "The Kid" Emerson - The Woodchuck
EXTD=
EXTT0=
EXTT1=
EXTT2=
EXTT3=
EXTT4=
EXTT5=
EXTT6=
EXTT7=
EXTT8=
EXTT9=
EXTT10=
EXTT11=
EXTT12=
EXTT13=
EXTT14=
EXTT15=
EXTT16=
EXTT17=
EXTT18=
EXTT19=
EXTT20=
EXTT21=
EXTT22=
EXTT23=
EXTT24=
EXTT25=
EXTT26=
EXTT27=
PLAYORDER=
